<?xml version="1.0" encoding="UTF-8"?>
<!DOCTYPE svg PUBLIC "-//W3C//DTD SVG 1.1//EN" "http://www.w3.org/Graphics/SVG/1.1/DTD/svg11.dtd">
<!-- Creator: CorelDRAW 2018 (64-Bit) -->
<svg xmlns="http://www.w3.org/2000/svg" xml:space="preserve" width="180mm" height="130mm" version="1.1" style="shape-rendering:geometricPrecision; text-rendering:geometricPrecision; image-rendering:optimizeQuality; fill-rule:evenodd; clip-rule:evenodd"
viewBox="0 0 18000 13000"
 xmlns:xlink="http://www.w3.org/1999/xlink">
 <defs>
  <style type="text/css">
   <![CDATA[
    .str0 {stroke:#2B2A29;stroke-width:20;stroke-miterlimit:22.9256}
    .fil252 {fill:none}
    .fil57 {fill:#F7AB0B}
    .fil56 {fill:#F7AA0B}
    .fil55 {fill:#F7AA0C}
    .fil54 {fill:#F6A90C}
    .fil53 {fill:#F6A80C}
    .fil52 {fill:#F6A70C}
    .fil51 {fill:#F6A60B}
    .fil50 {fill:#F6A60B}
    .fil49 {fill:#F6A50C}
    .fil48 {fill:#F5A30D}
    .fil47 {fill:#F5A30D}
    .fil46 {fill:#F5A20E}
    .fil45 {fill:#F5A00F}
    .fil44 {fill:#F49F10}
    .fil43 {fill:#F49D10}
    .fil42 {fill:#F49C11}
    .fil41 {fill:#F39A12}
    .fil40 {fill:#F49813}
    .fil39 {fill:#F39614}
    .fil38 {fill:#F39313}
    .fil82 {fill:#FDDA10}
    .fil81 {fill:#FDD610}
    .fil80 {fill:#FCD20F}
    .fil79 {fill:#FCCF0E}
    .fil78 {fill:#FBC90C}
    .fil77 {fill:#FAC209}
    .fil76 {fill:#F9C00A}
    .fil75 {fill:#F9BD0A}
    .fil74 {fill:#F8BC0A}
    .fil73 {fill:#F9BA0A}
    .fil72 {fill:#F8B90A}
    .fil71 {fill:#F8B708}
    .fil70 {fill:#F8B608}
    .fil69 {fill:#F8B508}
    .fil68 {fill:#F7B408}
    .fil67 {fill:#F7B309}
    .fil66 {fill:#F7B209}
    .fil65 {fill:#F7B10A}
    .fil64 {fill:#F7B00B}
    .fil63 {fill:#F6AF09}
    .fil62 {fill:#F6AE09}
    .fil61 {fill:#F6AE0A}
    .fil60 {fill:#F6AD0A}
    .fil59 {fill:#F6AC0B}
    .fil58 {fill:#F6AB0B}
    .fil37 {fill:#ED8F15}
    .fil36 {fill:#DF8A17}
    .fil35 {fill:#D88818}
    .fil34 {fill:#D48618}
    .fil33 {fill:#CB8318}
    .fil0 {fill:#CF1C5F}
    .fil32 {fill:#BF7A27}
    .fil31 {fill:#C96D50}
    .fil30 {fill:#CD645F}
    .fil29 {fill:#D05E68}
    .fil28 {fill:#D44F74}
    .fil27 {fill:#DE2585}
    .fil1 {fill:#D01D61}
    .fil26 {fill:#DE2483}
    .fil25 {fill:#DD2380}
    .fil2 {fill:#D11D62}
    .fil83 {fill:#ECD41B}
    .fil24 {fill:#DC227E}
    .fil23 {fill:#DC227D}
    .fil22 {fill:#DB217C}
    .fil21 {fill:#DB217B}
    .fil20 {fill:#DB217A}
    .fil19 {fill:#DB2079}
    .fil3 {fill:#D31D63}
    .fil18 {fill:#DB2078}
    .fil17 {fill:#DA2078}
    .fil16 {fill:#DA2077}
    .fil15 {fill:#DA1F76}
    .fil14 {fill:#DA1F76}
    .fil13 {fill:#DA2075}
    .fil12 {fill:#D92074}
    .fil11 {fill:#D91F73}
    .fil10 {fill:#D91F73}
    .fil9 {fill:#D91F72}
    .fil8 {fill:#D81E70}
    .fil7 {fill:#D81D6E}
    .fil6 {fill:#D71E6D}
    .fil5 {fill:#D71D6A}
    .fil4 {fill:#D61C67}
    .fil84 {fill:#C0B823}
    .fil85 {fill:#A7A727}
    .fil86 {fill:#979D28}
    .fil87 {fill:#8B9528}
    .fil249 {fill:#A94A94}
    .fil88 {fill:#7C8C29}
    .fil248 {fill:#A44692}
    .fil247 {fill:#A04390}
    .fil246 {fill:#9E408F}
    .fil245 {fill:#9C3F8E}
    .fil244 {fill:#9B3D8D}
    .fil198 {fill:#8CD0E0}
    .fil243 {fill:#983B8C}
    .fil89 {fill:#677E2A}
    .fil242 {fill:#95388B}
    .fil197 {fill:#82CDDD}
    .fil215 {fill:#742564}
    .fil216 {fill:#762667}
    .fil217 {fill:#772769}
    .fil218 {fill:#78276B}
    .fil196 {fill:#7DCBDB}
    .fil220 {fill:#7B276E}
    .fil219 {fill:#79276C}
    .fil241 {fill:#903589}
    .fil222 {fill:#7C2970}
    .fil221 {fill:#7B286F}
    .fil224 {fill:#7D2972}
    .fil223 {fill:#7C2971}
    .fil227 {fill:#7E2A74}
    .fil226 {fill:#7E2A73}
    .fil225 {fill:#7D2973}
    .fil200 {fill:#729AB6}
    .fil229 {fill:#7F2A75}
    .fil228 {fill:#7F2A75}
    .fil214 {fill:#6A245F}
    .fil232 {fill:#812B78}
    .fil231 {fill:#802B77}
    .fil230 {fill:#7F2A76}
    .fil233 {fill:#812C79}
    .fil195 {fill:#73C8D9}
    .fil235 {fill:#832C7B}
    .fil234 {fill:#822C7A}
    .fil236 {fill:#842D7D}
    .fil237 {fill:#852D7F}
    .fil240 {fill:#8A3086}
    .fil238 {fill:#862D81}
    .fil239 {fill:#872E83}
    .fil194 {fill:#5CC1D3}
    .fil201 {fill:#5D7B9C}
    .fil90 {fill:#466829}
    .fil193 {fill:#56BDD0}
    .fil213 {fill:#592558}
    .fil192 {fill:#54BAD0}
    .fil191 {fill:#51B6CE}
    .fil138 {fill:#65B03A}
    .fil137 {fill:#66AE43}
    .fil136 {fill:#64AB4A}
    .fil190 {fill:#4EB3CC}
    .fil135 {fill:#63A84D}
    .fil189 {fill:#4BB1CC}
    .fil134 {fill:#61A552}
    .fil188 {fill:#4AAFCB}
    .fil202 {fill:#53688C}
    .fil187 {fill:#49ADCA}
    .fil186 {fill:#48ABC8}
    .fil133 {fill:#5DA05B}
    .fil185 {fill:#46A9C8}
    .fil132 {fill:#5B9E5E}
    .fil129 {fill:#5AA158}
    .fil130 {fill:#5AA05A}
    .fil184 {fill:#45A8C6}
    .fil131 {fill:#5A9F5C}
    .fil139 {fill:#55A246}
    .fil124 {fill:#59A353}
    .fil125 {fill:#59A354}
    .fil126 {fill:#59A255}
    .fil127 {fill:#59A256}
    .fil128 {fill:#59A157}
    .fil183 {fill:#43A6C6}
    .fil117 {fill:#58A64E}
    .fil116 {fill:#58A64E}
    .fil118 {fill:#58A54F}
    .fil119 {fill:#58A54F}
    .fil121 {fill:#58A451}
    .fil120 {fill:#58A450}
    .fil122 {fill:#58A451}
    .fil123 {fill:#58A453}
    .fil182 {fill:#42A5C5}
    .fil212 {fill:#502454}
    .fil109 {fill:#56A84A}
    .fil108 {fill:#56A849}
    .fil110 {fill:#56A74B}
    .fil112 {fill:#56A64C}
    .fil111 {fill:#56A64B}
    .fil114 {fill:#56A64D}
    .fil113 {fill:#56A64D}
    .fil115 {fill:#56A64D}
    .fil181 {fill:#41A4C5}
    .fil180 {fill:#41A3C4}
    .fil103 {fill:#55AA44}
    .fil104 {fill:#55AA46}
    .fil105 {fill:#55A946}
    .fil106 {fill:#55A948}
    .fil107 {fill:#55A848}
    .fil94 {fill:#488531}
    .fil93 {fill:#458030}
    .fil92 {fill:#42782E}
    .fil91 {fill:#3D6B2B}
    .fil179 {fill:#40A2C5}
    .fil178 {fill:#41A1C3}
    .fil100 {fill:#53AC3F}
    .fil101 {fill:#53AC41}
    .fil102 {fill:#53AB43}
    .fil97 {fill:#4E9C37}
    .fil96 {fill:#4B9134}
    .fil95 {fill:#488A33}
    .fil177 {fill:#3FA0C3}
    .fil176 {fill:#40A0C3}
    .fil203 {fill:#4C5D81}
    .fil99 {fill:#51AD3D}
    .fil175 {fill:#3E9FC2}
    .fil174 {fill:#3F9EC2}
    .fil173 {fill:#3D9DC2}
    .fil172 {fill:#3D9DC1}
    .fil140 {fill:#49994B}
    .fil171 {fill:#3C9CC1}
    .fil170 {fill:#3A9BC1}
    .fil169 {fill:#3B9AC0}
    .fil168 {fill:#3A99BF}
    .fil167 {fill:#3998BF}
    .fil166 {fill:#3997BE}
    .fil211 {fill:#4A2451}
    .fil141 {fill:#43934E}
    .fil165 {fill:#3895BD}
    .fil164 {fill:#3794BC}
    .fil163 {fill:#3593BC}
    .fil204 {fill:#455176}
    .fil142 {fill:#3E8F50}
    .fil162 {fill:#3491BB}
    .fil161 {fill:#318FB9}
    .fil143 {fill:#398C51}
    .fil160 {fill:#318DB8}
    .fil210 {fill:#46244F}
    .fil144 {fill:#368953}
    .fil159 {fill:#2F8AB7}
    .fil158 {fill:#2E87B5}
    .fil145 {fill:#308454}
    .fil157 {fill:#2D85B3}
    .fil156 {fill:#2B81B1}
    .fil209 {fill:#40244C}
    .fil146 {fill:#277E56}
    .fil205 {fill:#3C4167}
    .fil155 {fill:#237DA1}
    .fil154 {fill:#1B7A93}
    .fil147 {fill:#1C7657}
    .fil153 {fill:#18788B}
    .fil152 {fill:#167684}
    .fil151 {fill:#13757E}
    .fil150 {fill:#107377}
    .fil208 {fill:#392348}
    .fil149 {fill:#0E6F6B}
    .fil206 {fill:#312E51}
    .fil207 {fill:#2E2241}
    .fil148 {fill:#086958}
    .fil98 {fill:#1DBC08}
    .fil199 {fill:#87EAFD}
    .fil251 {fill:#C90857}
    .fil250 {fill:#EA46E3}
   ]]>
  </style>
    <clipPath id="id0">
     <path d="M9111.99 -5554.16c6502.58,0 11773.96,5271.38 11773.96,11773.96 0,6502.59 -5271.38,11773.97 -11773.96,11773.97 -6502.59,0 -11773.97,-5271.38 -11773.97,-11773.97 0,-6502.58 5271.38,-11773.96 11773.97,-11773.96z"/>
    </clipPath>
 </defs>
 <g id="Слой_x0020_1">
  <metadata id="CorelCorpID_0Corel-Layer"/>
  <g>
   <g style="clip-path:url(#id0)">
    <polygon class="fil0" points="9582.96,6455.28 628.72,-10894.37 961.72,-11034.23 "/>
    <polygon id="1" class="fil1" points="9582.96,6455.28 906.22,-11010.92 1185.37,-11124.16 "/>
    <polygon id="2" class="fil2" points="9582.96,6455.28 1129.54,-11101.51 1410.29,-11211.42 "/>
    <polygon id="3" class="fil3" points="9582.96,6455.28 1354.13,-11189.44 1636.45,-11296 "/>
    <polygon id="4" class="fil4" points="9582.96,6455.28 1579.98,-11274.69 1863.81,-11377.89 "/>
    <polygon id="5" class="fil5" points="9582.96,6455.28 1807.04,-11357.25 2092.35,-11457.06 "/>
    <polygon id="6" class="fil6" points="9582.96,6455.28 2035.29,-11437.1 2322.02,-11533.52 "/>
    <polygon id="7" class="fil7" points="9582.96,6455.28 2264.67,-11514.24 2552.8,-11607.25 "/>
    <polygon id="8" class="fil8" points="9582.96,6455.28 2495.17,-11588.65 2784.64,-11678.24 "/>
    <polygon id="9" class="fil9" points="9582.96,6455.28 2726.75,-11660.32 3017.52,-11746.48 "/>
    <polygon id="10" class="fil10" points="9582.96,6455.28 2959.36,-11729.24 3251.39,-11811.95 "/>
    <polygon id="11" class="fil11" points="9582.96,6455.28 3192.98,-11795.41 3486.22,-11874.65 "/>
    <polygon id="12" class="fil12" points="9582.96,6455.28 3427.57,-11858.8 3721.98,-11934.57 "/>
    <polygon id="13" class="fil13" points="9582.96,6455.28 3663.1,-11919.41 3958.63,-11991.69 "/>
    <polygon id="14" class="fil14" points="9582.96,6455.28 3899.52,-11977.24 4196.13,-12046.02 "/>
    <polygon id="15" class="fil15" points="9582.96,6455.28 4136.8,-12032.26 4434.45,-12097.54 "/>
    <polygon id="16" class="fil16" points="9582.96,6455.28 4374.92,-12084.48 4673.55,-12146.24 "/>
    <polygon id="17" class="fil17" points="9582.96,6455.28 4613.82,-12133.89 4913.39,-12192.12 "/>
    <polygon id="18" class="fil18" points="9582.96,6455.28 4853.48,-12180.47 5153.95,-12235.17 "/>
    <polygon id="19" class="fil19" points="9582.96,6455.28 5093.85,-12224.23 5395.17,-12275.38 "/>
    <polygon id="20" class="fil20" points="9582.96,6455.28 5334.91,-12265.15 5637.04,-12312.75 "/>
    <polygon id="21" class="fil21" points="9582.96,6455.28 5576.61,-12303.23 5879.5,-12347.27 "/>
    <polygon id="22" class="fil22" points="9582.96,6455.28 5818.92,-12338.46 6122.52,-12378.94 "/>
    <polygon id="23" class="fil23" points="9582.96,6455.28 6061.8,-12370.84 6366.07,-12407.75 "/>
    <polygon id="24" class="fil24" points="9582.96,6455.28 6305.21,-12400.37 6610.1,-12433.69 "/>
    <polygon id="25" class="fil25" points="9582.96,6455.28 6549.12,-12427.03 6854.59,-12456.77 "/>
    <polygon id="26" class="fil26" points="9582.96,6455.28 6793.5,-12450.82 7099.49,-12476.98 "/>
    <polygon id="27" class="fil27" points="9582.96,6455.28 7038.29,-12471.75 7344.77,-12494.31 "/>
    <polygon id="28" class="fil28" points="9582.96,6455.28 7283.47,-12489.8 7590.39,-12508.77 "/>
    <polygon id="29" class="fil29" points="9582.96,6455.28 7529,-12504.98 7836.31,-12520.35 "/>
    <polygon id="30" class="fil30" points="9582.96,6455.28 7774.85,-12517.28 8082.5,-12529.05 "/>
    <polygon id="31" class="fil31" points="9582.96,6455.28 8020.97,-12526.7 8328.91,-12534.87 "/>
    <polygon id="32" class="fil32" points="9582.96,6455.28 8267.32,-12533.23 8575.52,-12537.81 "/>
    <polygon id="33" class="fil33" points="9582.96,6455.28 8513.87,-12536.89 8822.27,-12537.86 "/>
    <polygon id="34" class="fil34" points="9582.96,6455.28 8760.59,-12537.66 9069.14,-12535.03 "/>
    <polygon id="35" class="fil35" points="9582.96,6455.28 9007.43,-12535.56 9316.1,-12529.32 "/>
    <polygon id="36" class="fil36" points="9582.96,6455.28 9254.36,-12530.56 9563.09,-12520.72 "/>
    <polygon id="37" class="fil37" points="9582.96,6455.28 9501.34,-12522.69 9810.08,-12509.25 "/>
    <polygon id="38" class="fil38" points="9582.96,6455.28 9748.33,-12511.94 10057.04,-12494.9 "/>
    <polygon id="39" class="fil39" points="9582.96,6455.28 9995.3,-12498.31 10303.93,-12477.67 "/>
    <polygon id="40" class="fil40" points="9582.96,6455.28 10242.2,-12481.8 10550.71,-12457.57 "/>
    <polygon id="41" class="fil41" points="9582.96,6455.28 10489,-12462.41 10797.34,-12434.59 "/>
    <polygon id="42" class="fil42" points="9582.96,6455.28 10735.67,-12440.16 11043.78,-12408.75 "/>
    <polygon id="43" class="fil43" points="9582.96,6455.28 10982.16,-12415.04 11290.01,-12380.05 "/>
    <polygon id="44" class="fil44" points="9582.96,6455.28 11228.44,-12387.05 11535.97,-12348.49 "/>
    <polygon id="45" class="fil45" points="9582.96,6455.28 11474.46,-12356.2 11781.64,-12314.07 "/>
    <polygon id="46" class="fil46" points="9582.96,6455.28 11720.21,-12322.5 12026.98,-12276.81 "/>
    <polygon id="47" class="fil47" points="9582.96,6455.28 11965.62,-12285.95 12271.95,-12236.7 "/>
    <polygon id="48" class="fil48" points="9582.96,6455.28 12210.68,-12246.55 12516.5,-12193.76 "/>
    <polygon id="49" class="fil49" points="9582.96,6455.28 12455.33,-12204.32 12760.61,-12147.98 "/>
    <polygon id="50" class="fil50" points="9582.96,6455.28 12699.56,-12159.25 13004.24,-12099.38 "/>
    <polygon id="51" class="fil51" points="9582.96,6455.28 12943.3,-12111.36 13247.35,-12047.97 "/>
    <polygon id="52" class="fil52" points="9582.96,6455.28 13186.54,-12060.65 13489.91,-11993.74 "/>
    <polygon id="53" class="fil53" points="9582.96,6455.28 13429.23,-12007.13 13731.87,-11936.72 "/>
    <polygon id="54" class="fil54" points="9582.96,6455.28 13671.34,-11950.8 13973.2,-11876.91 "/>
    <polygon id="55" class="fil55" points="9582.96,6455.28 13912.82,-11891.69 14213.86,-11814.31 "/>
    <polygon id="56" class="fil55" points="9582.96,6455.28 14153.65,-11829.78 14453.83,-11748.94 "/>
    <polygon id="57" class="fil56" points="9582.96,6455.28 14393.79,-11765.11 14693.05,-11680.8 "/>
    <polygon id="58" class="fil57" points="9582.96,6455.28 14633.19,-11697.66 14931.49,-11609.92 "/>
    <polygon id="59" class="fil58" points="9582.96,6455.28 14871.83,-11627.47 15169.13,-11536.29 "/>
    <polygon id="60" class="fil58" points="9582.96,6455.28 15109.67,-11554.53 15405.92,-11459.93 "/>
    <polygon id="61" class="fil59" points="9582.96,6455.28 15346.67,-11478.85 15641.82,-11380.85 "/>
    <polygon id="62" class="fil60" points="9582.96,6455.28 15582.79,-11400.45 15876.8,-11299.07 "/>
    <polygon id="63" class="fil60" points="9582.96,6455.28 15818,-11319.34 16110.83,-11214.59 "/>
    <polygon id="64" class="fil61" points="9582.96,6455.28 16052.26,-11235.54 16343.87,-11127.42 "/>
    <polygon id="65" class="fil62" points="9582.96,6455.28 16285.55,-11149.05 16575.88,-11037.59 "/>
    <polygon id="66" class="fil63" points="9582.96,6455.28 16517.81,-11059.88 16806.83,-10945.11 "/>
    <polygon id="67" class="fil64" points="9582.96,6455.28 16749.03,-10968.06 17036.69,-10849.98 "/>
    <polygon id="68" class="fil65" points="9582.96,6455.28 16979.15,-10873.6 17265.41,-10752.23 "/>
    <polygon id="69" class="fil66" points="9582.96,6455.28 17208.16,-10776.5 17492.97,-10651.86 "/>
    <polygon id="70" class="fil67" points="9582.96,6455.28 17436,-10676.79 17719.32,-10548.9 "/>
    <polygon id="71" class="fil68" points="9582.96,6455.28 17662.66,-10574.48 17944.44,-10443.36 "/>
    <polygon id="72" class="fil69" points="9582.96,6455.28 17888.08,-10469.58 18168.29,-10335.25 "/>
    <polygon id="73" class="fil70" points="9582.96,6455.28 18112.25,-10362.12 18390.84,-10224.59 "/>
    <polygon id="74" class="fil71" points="9582.96,6455.28 18335.12,-10252.1 18612.06,-10111.41 "/>
    <polygon id="75" class="fil72" points="9582.96,6455.28 18556.67,-10139.55 18831.9,-9995.7 "/>
    <polygon id="76" class="fil73" points="9582.96,6455.28 18776.85,-10024.47 19050.33,-9877.5 "/>
    <polygon id="77" class="fil74" points="9582.96,6455.28 18995.63,-9906.9 19267.33,-9756.83 "/>
    <polygon id="78" class="fil75" points="9582.96,6455.28 19212.99,-9786.84 19482.87,-9633.69 "/>
    <polygon id="79" class="fil76" points="9582.96,6455.28 19428.89,-9664.32 19696.89,-9508.11 "/>
    <polygon id="80" class="fil77" points="9582.96,6455.28 19643.29,-9539.35 19909.39,-9380.1 "/>
    <polygon id="81" class="fil78" points="9582.96,6455.28 19856.17,-9411.95 20120.31,-9249.7 "/>
    <polygon id="82" class="fil79" points="9582.96,6455.28 20067.48,-9282.15 20329.64,-9116.91 "/>
    <polygon id="83" class="fil80" points="9582.96,6455.28 20277.21,-9149.96 20537.33,-8981.75 "/>
    <polygon id="84" class="fil81" points="9582.96,6455.28 20485.31,-9015.39 20743.37,-8844.25 "/>
    <polygon id="85" class="fil82" points="9582.96,6455.28 20691.75,-8878.48 20947.71,-8704.43 "/>
    <polygon id="86" class="fil83" points="9582.96,6455.28 20896.51,-8739.25 21150.32,-8562.31 "/>
    <polygon id="87" class="fil84" points="9582.96,6455.28 21099.56,-8597.7 21351.18,-8417.91 "/>
    <polygon id="88" class="fil85" points="9582.96,6455.28 21300.85,-8453.87 21550.25,-8271.26 "/>
    <polygon id="89" class="fil86" points="9582.96,6455.28 21500.37,-8307.78 21747.5,-8122.36 "/>
    <polygon id="90" class="fil87" points="9582.96,6455.28 21698.08,-8159.45 21942.91,-7971.26 "/>
    <polygon id="91" class="fil88" points="9582.96,6455.28 21893.94,-8008.9 22136.45,-7817.96 "/>
    <polygon id="92" class="fil89" points="9582.96,6455.28 22087.94,-7856.15 22328.08,-7662.5 "/>
    <polygon id="93" class="fil90" points="9582.96,6455.28 22280.05,-7701.23 22517.77,-7504.9 "/>
    <polygon id="94" class="fil91" points="9582.96,6455.28 22470.22,-7544.17 22705.5,-7345.18 "/>
    <polygon id="95" class="fil92" points="9582.96,6455.28 22658.44,-7384.98 22891.24,-7183.36 "/>
    <polygon id="96" class="fil93" points="9582.96,6455.28 22844.68,-7223.68 23074.96,-7019.47 "/>
    <polygon id="97" class="fil94" points="9582.96,6455.28 23028.9,-7060.32 23256.63,-6853.54 "/>
    <polygon id="98" class="fil95" points="9582.96,6455.28 23211.08,-6894.9 23436.22,-6685.59 "/>
    <polygon id="99" class="fil96" points="9582.96,6455.28 23391.19,-6727.45 23613.71,-6515.64 "/>
    <polygon id="100" class="fil97" points="9582.96,6455.28 23569.21,-6558 23789.08,-6343.72 "/>
    <polygon id="101" class="fil98" points="9582.96,6455.28 23745.1,-6386.58 23962.28,-6169.86 "/>
    <polygon id="102" class="fil99" points="9582.96,6455.28 23918.85,-6213.21 24133.31,-5994.09 "/>
    <polygon id="103" class="fil100" points="9582.96,6455.28 24090.41,-6037.92 24302.12,-5816.43 "/>
    <polygon id="104" class="fil101" points="9582.96,6455.28 24259.78,-5860.73 24468.71,-5636.9 "/>
    <polygon id="105" class="fil102" points="9582.96,6455.28 24426.92,-5681.67 24633.03,-5455.54 "/>
    <polygon id="106" class="fil103" points="9582.96,6455.28 24591.8,-5500.76 24795.07,-5272.37 "/>
    <polygon id="107" class="fil104" points="9582.96,6455.28 24754.41,-5318.05 24954.8,-5087.42 "/>
    <polygon id="108" class="fil105" points="9582.96,6455.28 24914.72,-5133.54 25112.19,-4900.71 "/>
    <polygon id="109" class="fil106" points="9582.96,6455.28 25072.7,-4947.28 25267.23,-4712.29 "/>
    <polygon id="110" class="fil107" points="9582.96,6455.28 25228.32,-4759.29 25419.89,-4522.17 "/>
    <polygon id="111" class="fil108" points="9582.96,6455.28 25381.57,-4569.59 25570.14,-4330.38 "/>
    <polygon id="112" class="fil109" points="9582.96,6455.28 25532.43,-4378.23 25717.97,-4136.96 "/>
    <polygon id="113" class="fil110" points="9582.96,6455.28 25680.86,-4185.21 25863.35,-3941.93 "/>
    <polygon id="114" class="fil111" points="9582.96,6455.28 25826.85,-3990.58 26006.26,-3745.32 "/>
    <polygon id="115" class="fil112" points="9582.96,6455.28 25970.38,-3794.37 26146.68,-3547.16 "/>
    <polygon id="116" class="fil113" points="9582.96,6455.28 26111.41,-3596.6 26284.58,-3347.48 "/>
    <polygon id="117" class="fil114" points="9582.96,6455.28 26249.94,-3397.31 26419.94,-3146.32 "/>
    <polygon id="118" class="fil115" points="9582.96,6455.28 26385.94,-3196.52 26552.75,-2943.7 "/>
    <polygon id="119" class="fil116" points="9582.96,6455.28 26519.39,-2994.26 26682.99,-2739.65 "/>
    <polygon id="120" class="fil117" points="9582.96,6455.28 26650.27,-2790.57 26810.63,-2534.2 "/>
    <polygon id="121" class="fil118" points="9582.96,6455.28 26778.56,-2585.48 26935.66,-2327.4 "/>
    <polygon id="122" class="fil118" points="9582.96,6455.28 26904.23,-2379.02 27058.05,-2119.26 "/>
    <polygon id="123" class="fil119" points="9582.96,6455.28 27027.28,-2171.21 27177.79,-1909.81 "/>
    <polygon id="124" class="fil120" points="9582.96,6455.28 27147.68,-1962.09 27294.85,-1699.1 "/>
    <polygon id="125" class="fil121" points="9582.96,6455.28 27265.42,-1751.7 27409.23,-1487.15 "/>
    <polygon id="126" class="fil122" points="9582.96,6455.28 27380.47,-1540.06 27520.91,-1274 "/>
    <polygon id="127" class="fil123" points="9582.96,6455.28 27492.82,-1327.21 27629.86,-1059.67 "/>
    <polygon id="128" class="fil124" points="9582.96,6455.28 27602.45,-1113.18 27736.07,-844.2 "/>
    <polygon id="129" class="fil125" points="9582.96,6455.28 27709.35,-898 27839.53,-627.62 "/>
    <polygon id="130" class="fil126" points="9582.96,6455.28 27813.49,-681.7 27940.22,-409.97 "/>
    <polygon id="131" class="fil127" points="9582.96,6455.28 27914.87,-464.32 28038.12,-191.28 "/>
    <polygon id="132" class="fil128" points="9582.96,6455.28 28013.47,-245.89 28133.22,28.43 "/>
    <polygon id="133" class="fil129" points="9582.96,6455.28 28109.27,-26.44 28225.5,249.1 "/>
    <polygon id="134" class="fil130" points="9582.96,6455.28 28202.25,193.99 28314.95,470.72 "/>
    <polygon id="135" class="fil131" points="9582.96,6455.28 28292.41,415.38 28401.56,693.25 "/>
    <polygon id="136" class="fil132" points="9582.96,6455.28 28379.73,637.68 28485.32,916.66 "/>
    <polygon id="137" class="fil133" points="9582.96,6455.28 28464.2,860.86 28566.2,1140.9 "/>
    <polygon id="138" class="fil134" points="9582.96,6455.28 28545.8,1084.89 28644.21,1365.95 "/>
    <polygon id="139" class="fil135" points="9582.96,6455.28 28624.53,1309.74 28719.32,1591.77 "/>
    <polygon id="140" class="fil136" points="9582.96,6455.28 28700.36,1535.36 28791.53,1818.33 "/>
    <polygon id="141" class="fil137" points="9582.96,6455.28 28773.29,1761.74 28860.82,2045.6 "/>
    <polygon id="142" class="fil138" points="9582.96,6455.28 28843.31,1988.82 28927.18,2273.53 "/>
    <polygon id="143" class="fil139" points="9582.96,6455.28 28910.41,2216.59 28990.61,2502.1 "/>
    <polygon id="144" class="fil140" points="9582.96,6455.28 28974.57,2445 29051.09,2731.27 "/>
    <polygon id="145" class="fil141" points="9582.96,6455.28 29035.79,2674.01 29108.62,2961 "/>
    <polygon id="146" class="fil142" points="9582.96,6455.28 29094.06,2903.6 29163.19,3191.27 "/>
    <polygon id="147" class="fil143" points="9582.96,6455.28 29149.36,3133.73 29214.78,3422.03 "/>
    <polygon id="148" class="fil144" points="9582.96,6455.28 29201.7,3364.37 29263.39,3653.25 "/>
    <polygon id="149" class="fil145" points="9582.96,6455.28 29251.05,3595.47 29309.02,3884.89 "/>
    <polygon id="150" class="fil146" points="9582.96,6455.28 29297.43,3827.01 29351.65,4116.93 "/>
    <polygon id="151" class="fil147" points="9582.96,6455.28 29340.81,4058.94 29391.28,4349.32 "/>
    <polygon id="152" class="fil148" points="9582.96,6455.28 29381.19,4291.24 29427.91,4582.03 "/>
    <polygon id="153" class="fil149" points="9582.96,6455.28 29418.57,4523.87 29461.52,4815.03 "/>
    <polygon id="154" class="fil150" points="9582.96,6455.28 29452.93,4756.79 29492.12,5048.27 "/>
    <polygon id="155" class="fil151" points="9582.96,6455.28 29484.28,4989.97 29519.69,5281.73 "/>
    <polygon id="156" class="fil152" points="9582.96,6455.28 29512.61,5223.37 29544.24,5515.36 "/>
    <polygon id="157" class="fil153" points="9582.96,6455.28 29537.92,5456.96 29565.76,5749.14 "/>
    <polygon id="158" class="fil154" points="9582.96,6455.28 29560.19,5690.7 29584.25,5983.02 "/>
    <polygon id="159" class="fil155" points="9582.96,6455.28 29579.43,5924.56 29599.7,6216.98 "/>
    <polygon id="160" class="fil156" points="9582.96,6455.28 29595.64,6158.49 29612.11,6450.97 "/>
    <polygon id="161" class="fil157" points="9582.96,6455.28 29608.81,6392.47 29621.48,6684.97 "/>
    <polygon id="162" class="fil158" points="9582.96,6455.28 29618.95,6626.47 29627.81,6918.92 "/>
    <polygon id="163" class="fil159" points="9582.96,6455.28 29626.04,6860.43 29631.1,7152.81 "/>
    <polygon id="164" class="fil160" points="9582.96,6455.28 29630.08,7094.33 29631.34,7386.6 "/>
    <polygon id="165" class="fil161" points="9582.96,6455.28 29631.09,7328.14 29628.54,7620.24 "/>
    <polygon id="166" class="fil162" points="9582.96,6455.28 29629.05,7561.82 29622.7,7853.7 "/>
    <polygon id="167" class="fil163" points="9582.96,6455.28 29623.97,7795.32 29613.82,8086.95 "/>
    <polygon id="168" class="fil164" points="9582.96,6455.28 29615.85,8028.62 29601.9,8319.96 "/>
    <polygon id="169" class="fil165" points="9582.96,6455.28 29604.69,8261.69 29586.94,8552.68 "/>
    <polygon id="170" class="fil166" points="9582.96,6455.28 29590.49,8494.48 29568.94,8785.08 "/>
    <polygon id="171" class="fil167" points="9582.96,6455.28 29573.25,8726.96 29547.91,9017.13 "/>
    <polygon id="172" class="fil168" points="9582.96,6455.28 29552.98,8959.09 29523.85,9248.79 "/>
    <polygon id="173" class="fil169" points="9582.96,6455.28 29529.67,9190.85 29496.76,9480.03 "/>
    <polygon id="174" class="fil170" points="9582.96,6455.28 29503.34,9422.19 29466.65,9710.8 "/>
    <polygon id="175" class="fil171" points="9582.96,6455.28 29473.99,9653.08 29433.52,9941.09 "/>
    <polygon id="176" class="fil172" points="9582.96,6455.28 29441.62,9883.48 29397.38,10170.84 "/>
    <polygon id="177" class="fil173" points="9582.96,6455.28 29406.23,10113.37 29358.23,10400.03 "/>
    <polygon id="178" class="fil174" points="9582.96,6455.28 29367.83,10342.7 29316.08,10628.62 "/>
    <polygon id="179" class="fil175" points="9582.96,6455.28 29326.43,10571.44 29270.94,10856.58 "/>
    <polygon id="180" class="fil176" points="9582.96,6455.28 29282.04,10799.55 29222.8,11083.87 "/>
    <polygon id="181" class="fil177" points="9582.96,6455.28 29234.65,11027.01 29171.69,11310.46 "/>
    <polygon id="182" class="fil178" points="9582.96,6455.28 29184.28,11253.77 29117.6,11536.31 "/>
    <polygon id="183" class="fil179" points="9582.96,6455.28 29130.94,11479.8 29060.55,11761.39 "/>
    <polygon id="184" class="fil180" points="9582.96,6455.28 29074.63,11705.07 29000.54,11985.66 "/>
    <polygon id="185" class="fil181" points="9582.96,6455.28 29015.36,11929.54 28937.59,12209.1 "/>
    <polygon id="186" class="fil182" points="9582.96,6455.28 28953.14,12153.19 28871.69,12431.66 "/>
    <polygon id="187" class="fil183" points="9582.96,6455.28 28887.98,12375.96 28802.87,12653.31 "/>
    <polygon id="188" class="fil184" points="9582.96,6455.28 28819.89,12597.84 28731.13,12874.03 "/>
    <polygon id="189" class="fil185" points="9582.96,6455.28 28748.89,12818.79 28656.49,13093.77 "/>
    <polygon id="190" class="fil186" points="9582.96,6455.28 28674.97,13038.77 28578.95,13312.5 "/>
    <polygon id="191" class="fil187" points="9582.96,6455.28 28598.15,13257.75 28498.53,13530.19 "/>
    <polygon id="192" class="fil188" points="9582.96,6455.28 28518.45,13475.7 28415.23,13746.81 "/>
    <polygon id="193" class="fil189" points="9582.96,6455.28 28435.88,13692.58 28329.08,13962.32 "/>
    <polygon id="194" class="fil190" points="9582.96,6455.28 28350.44,13908.37 28240.08,14176.69 "/>
    <polygon id="195" class="fil191" points="9582.96,6455.28 28262.16,14123.02 28148.25,14389.89 "/>
    <polygon id="196" class="fil192" points="9582.96,6455.28 28171.03,14336.51 28053.61,14601.88 "/>
    <polygon id="197" class="fil193" points="9582.96,6455.28 28077.09,14548.81 27956.16,14812.64 "/>
    <polygon id="198" class="fil194" points="9582.96,6455.28 27980.34,14759.87 27855.92,15022.13 "/>
    <polygon id="199" class="fil195" points="9582.96,6455.28 27880.8,14969.68 27752.9,15230.32 "/>
    <polygon id="200" class="fil196" points="9582.96,6455.28 27778.49,15178.19 27647.13,15437.18 "/>
    <polygon id="201" class="fil197" points="9582.96,6455.28 27673.41,15385.38 27538.62,15642.67 "/>
    <polygon id="202" class="fil198" points="9582.96,6455.28 27565.58,15591.21 27427.38,15846.77 "/>
    <polygon id="203" class="fil199" points="9582.96,6455.28 27455.02,15795.66 27313.44,16049.44 "/>
    <polygon id="204" class="fil200" points="9582.96,6455.28 27341.76,15998.69 27196.8,16250.66 "/>
    <polygon id="205" class="fil201" points="9582.96,6455.28 27225.79,16200.27 27077.49,16450.39 "/>
    <polygon id="206" class="fil202" points="9582.96,6455.28 27107.15,16400.37 26955.52,16648.61 "/>
    <polygon id="207" class="fil203" points="9582.96,6455.28 26985.85,16598.96 26830.92,16845.28 "/>
    <polygon id="208" class="fil204" points="9582.96,6455.28 26861.91,16796.01 26703.7,17040.37 "/>
    <polygon id="209" class="fil205" points="9582.96,6455.28 26735.34,16991.49 26573.88,17233.85 "/>
    <polygon id="210" class="fil206" points="9582.96,6455.28 26606.18,17185.38 26441.48,17425.7 "/>
    <polygon id="211" class="fil207" points="9582.96,6455.28 26474.42,17377.63 26306.53,17615.88 "/>
    <polygon id="212" class="fil208" points="9582.96,6455.28 26340.11,17568.23 26169.03,17804.37 "/>
    <polygon id="213" class="fil209" points="9582.96,6455.28 26203.25,17757.14 26029.02,17991.14 "/>
    <polygon id="214" class="fil210" points="9582.96,6455.28 26063.87,17944.33 25886.51,18176.15 "/>
    <polygon id="215" class="fil211" points="9582.96,6455.28 25921.98,18129.79 25741.53,18359.39 "/>
    <polygon id="216" class="fil212" points="9582.96,6455.28 25777.62,18313.46 25594.09,18540.82 "/>
    <polygon id="217" class="fil213" points="9582.96,6455.28 25630.8,18495.34 25444.23,18720.41 "/>
    <polygon id="218" class="fil214" points="9582.96,6455.28 25481.54,18675.4 25291.95,18898.14 "/>
    <polygon id="219" class="fil215" points="9582.96,6455.28 25329.87,18853.59 25137.3,19073.99 "/>
    <polygon id="220" class="fil216" points="9582.96,6455.28 25175.81,19029.91 24980.28,19247.92 "/>
    <polygon id="221" class="fil217" points="9582.96,6455.28 25019.39,19204.32 24820.92,19419.91 "/>
    <polygon id="222" class="fil218" points="9582.96,6455.28 24860.62,19376.79 24659.25,19589.93 "/>
    <polygon id="223" class="fil219" points="9582.96,6455.28 24699.53,19547.3 24495.3,19757.95 "/>
    <polygon id="224" class="fil220" points="9582.96,6455.28 24536.14,19715.82 24329.08,19923.96 "/>
    <polygon id="225" class="fil221" points="9582.96,6455.28 24370.49,19882.33 24160.62,20087.92 "/>
    <polygon id="226" class="fil222" points="9582.96,6455.28 24202.59,20046.8 23989.95,20249.82 "/>
    <polygon id="227" class="fil223" points="9582.96,6455.28 24032.48,20209.21 23817.09,20409.62 "/>
    <polygon id="228" class="fil224" points="9582.96,6455.28 23860.17,20369.54 23642.07,20567.3 "/>
    <polygon id="229" class="fil225" points="9582.96,6455.28 23685.69,20527.75 23464.92,20722.84 "/>
    <polygon id="230" class="fil226" points="9582.96,6455.28 23509.08,20683.82 23285.66,20876.22 "/>
    <polygon id="231" class="fil227" points="9582.96,6455.28 23330.35,20837.74 23104.32,21027.4 "/>
    <polygon id="232" class="fil228" points="9582.96,6455.28 23149.53,20989.47 22920.93,21176.38 "/>
    <polygon id="233" class="fil229" points="9582.96,6455.28 22966.65,21138.99 22735.52,21323.12 "/>
    <polygon id="234" class="fil230" points="9582.96,6455.28 22781.75,21286.29 22548.11,21467.6 "/>
    <polygon id="235" class="fil231" points="9582.96,6455.28 22594.84,21431.34 22358.73,21609.81 "/>
    <polygon id="236" class="fil232" points="9582.96,6455.28 22405.95,21574.11 22167.41,21749.71 "/>
    <polygon id="237" class="fil233" points="9582.96,6455.28 22215.12,21714.59 21974.18,21887.29 "/>
    <polygon id="238" class="fil234" points="9582.96,6455.28 22022.37,21852.75 21779.07,22022.53 "/>
    <polygon id="239" class="fil235" points="9582.96,6455.28 21827.73,21988.58 21582.11,22155.41 "/>
    <polygon id="240" class="fil236" points="9582.96,6455.28 21631.24,22122.04 21383.33,22285.91 "/>
    <polygon id="241" class="fil237" points="9582.96,6455.28 21432.91,22253.13 21182.75,22414 "/>
    <polygon id="242" class="fil238" points="9582.96,6455.28 21232.79,22381.83 20980.42,22539.67 "/>
    <polygon id="243" class="fil239" points="9582.96,6455.28 21030.9,22508.1 20776.36,22662.9 "/>
    <polygon id="244" class="fil240" points="9582.96,6455.28 20827.27,22631.94 20570.6,22783.67 "/>
    <polygon id="245" class="fil241" points="9582.96,6455.28 20621.93,22753.32 20363.17,22901.96 "/>
    <polygon id="246" class="fil242" points="9582.96,6455.28 20414.92,22872.23 20154.1,23017.75 "/>
    <polygon id="247" class="fil243" points="9582.96,6455.28 20206.27,22988.65 19943.43,23131.03 "/>
    <polygon id="248" class="fil244" points="9582.96,6455.28 19996,23102.56 19731.19,23241.78 "/>
    <polygon id="249" class="fil245" points="9582.96,6455.28 19784.15,23213.94 19517.4,23349.99 "/>
    <polygon id="250" class="fil246" points="9582.96,6455.28 19570.75,23322.78 19302.11,23455.62 "/>
    <polygon id="251" class="fil247" points="9582.96,6455.28 19355.84,23429.05 19085.35,23558.68 "/>
    <polygon id="252" class="fil248" points="9582.96,6455.28 19139.45,23532.75 18867.14,23659.14 "/>
    <polygon id="253" class="fil249" points="9582.96,6455.28 18921.6,23633.86 18647.52,23756.99 "/>
    <polygon id="254" class="fil250" points="9582.96,6455.28 18702.34,23732.36 18426.52,23852.22 "/>
    <polygon id="255" class="fil249" points="9582.96,6455.28 18481.69,23828.24 18204.19,23944.8 "/>
    <polygon id="256" class="fil248" points="9582.96,6455.28 18259.69,23921.49 17980.54,24034.73 "/>
    <polygon id="257" class="fil247" points="9582.96,6455.28 18036.38,24012.08 17755.63,24121.99 "/>
    <polygon id="258" class="fil246" points="9582.96,6455.28 17811.78,24100.01 17529.47,24206.57 "/>
    <polygon id="259" class="fil245" points="9582.96,6455.28 17585.93,24185.25 17302.1,24288.45 "/>
    <polygon id="260" class="fil244" points="9582.96,6455.28 17358.87,24267.81 17073.56,24367.63 "/>
    <polygon id="261" class="fil243" points="9582.96,6455.28 17130.63,24347.67 16843.89,24444.09 "/>
    <polygon id="262" class="fil242" points="9582.96,6455.28 16901.24,24424.8 16613.11,24517.82 "/>
    <polygon id="263" class="fil241" points="9582.96,6455.28 16670.74,24499.22 16381.27,24588.81 "/>
    <polygon id="264" class="fil240" points="9582.96,6455.28 16439.17,24570.89 16148.39,24657.04 "/>
    <polygon id="265" class="fil239" points="9582.96,6455.28 16206.55,24639.81 15914.52,24722.51 "/>
    <polygon id="266" class="fil238" points="9582.96,6455.28 15972.93,24705.97 15679.69,24785.21 "/>
    <polygon id="267" class="fil237" points="9582.96,6455.28 15738.34,24769.37 15443.93,24845.13 "/>
    <polygon id="268" class="fil236" points="9582.96,6455.28 15502.82,24829.98 15207.28,24902.26 "/>
    <polygon id="269" class="fil235" points="9582.96,6455.28 15266.39,24887.8 14969.78,24956.59 "/>
    <polygon id="270" class="fil234" points="9582.96,6455.28 15029.11,24942.83 14731.46,25008.1 "/>
    <polygon id="271" class="fil233" points="9582.96,6455.28 14791,24995.05 14492.36,25056.81 "/>
    <polygon id="272" class="fil232" points="9582.96,6455.28 14552.09,25044.46 14252.52,25102.69 "/>
    <polygon id="273" class="fil231" points="9582.96,6455.28 14312.44,25091.04 14011.97,25145.74 "/>
    <polygon id="274" class="fil230" points="9582.96,6455.28 14072.06,25134.8 13770.74,25185.95 "/>
    <polygon id="275" class="fil229" points="9582.96,6455.28 13831.01,25175.72 13528.88,25223.32 "/>
    <polygon id="276" class="fil228" points="9582.96,6455.28 13589.3,25213.8 13286.42,25257.84 "/>
    <polygon id="277" class="fil227" points="9582.96,6455.28 13347,25249.03 13043.39,25289.51 "/>
    <polygon id="278" class="fil226" points="9582.96,6455.28 13104.12,25281.41 12799.84,25318.31 "/>
    <polygon id="279" class="fil225" points="9582.96,6455.28 12860.7,25310.93 12555.81,25344.26 "/>
    <polygon id="280" class="fil224" points="9582.96,6455.28 12616.79,25337.59 12311.32,25367.34 "/>
    <polygon id="281" class="fil223" points="9582.96,6455.28 12372.42,25361.39 12066.42,25387.55 "/>
    <polygon id="282" class="fil222" points="9582.96,6455.28 12127.62,25382.31 11821.14,25404.88 "/>
    <polygon id="283" class="fil221" points="9582.96,6455.28 11882.44,25400.37 11575.52,25419.34 "/>
    <polygon id="284" class="fil220" points="9582.96,6455.28 11636.91,25415.54 11329.6,25430.92 "/>
    <polygon id="285" class="fil219" points="9582.96,6455.28 11391.06,25427.84 11083.41,25439.62 "/>
    <polygon id="286" class="fil218" points="9582.96,6455.28 11144.95,25437.26 10837,25445.44 "/>
    <polygon id="287" class="fil217" points="9582.96,6455.28 10898.59,25443.8 10590.4,25448.37 "/>
    <polygon id="288" class="fil216" points="9582.96,6455.28 10652.04,25447.46 10343.64,25448.42 "/>
    <polygon id="289" class="fil215" points="9582.96,6455.28 10405.32,25448.23 10096.77,25445.59 "/>
    <polygon id="290" class="fil214" points="9582.96,6455.28 10158.48,25446.12 9849.82,25439.88 "/>
    <polygon id="291" class="fil213" points="9582.96,6455.28 9911.55,25441.13 9602.83,25431.29 "/>
    <polygon id="292" class="fil212" points="9582.96,6455.28 9664.57,25433.26 9355.83,25419.82 "/>
    <polygon id="293" class="fil211" points="9582.96,6455.28 9417.58,25422.5 9108.87,25405.46 "/>
    <polygon id="294" class="fil210" points="9582.96,6455.28 9170.62,25408.87 8861.98,25388.23 "/>
    <polygon id="295" class="fil209" points="9582.96,6455.28 8923.71,25392.36 8615.21,25368.13 "/>
    <polygon id="296" class="fil208" points="9582.96,6455.28 8676.91,25372.98 8368.58,25345.16 "/>
    <polygon id="297" class="fil207" points="9582.96,6455.28 8430.24,25350.72 8122.13,25319.32 "/>
    <polygon id="298" class="fil206" points="9582.96,6455.28 8183.75,25325.6 7875.9,25290.62 "/>
    <polygon id="299" class="fil205" points="9582.96,6455.28 7937.48,25297.61 7629.94,25259.06 "/>
    <polygon id="300" class="fil204" points="9582.96,6455.28 7691.45,25266.77 7384.27,25224.64 "/>
    <polygon id="301" class="fil203" points="9582.96,6455.28 7445.71,25233.07 7138.93,25187.38 "/>
    <polygon id="302" class="fil202" points="9582.96,6455.28 7200.29,25196.51 6893.97,25147.27 "/>
    <polygon id="303" class="fil201" points="9582.96,6455.28 6955.23,25157.12 6649.41,25104.32 "/>
    <polygon id="304" class="fil200" points="9582.96,6455.28 6710.58,25114.88 6405.3,25058.55 "/>
    <polygon id="305" class="fil199" points="9582.96,6455.28 6466.36,25069.82 6161.67,25009.95 "/>
    <polygon id="306" class="fil198" points="9582.96,6455.28 6222.61,25021.92 5918.56,24958.53 "/>
    <polygon id="307" class="fil197" points="9582.96,6455.28 5979.37,24971.21 5676,24904.31 "/>
    <polygon id="308" class="fil196" points="9582.96,6455.28 5736.68,24917.69 5434.04,24847.29 "/>
    <polygon id="309" class="fil195" points="9582.96,6455.28 5494.57,24861.37 5192.71,24787.47 "/>
    <polygon id="310" class="fil194" points="9582.96,6455.28 5253.09,24802.25 4952.05,24724.87 "/>
    <polygon id="311" class="fil193" points="9582.96,6455.28 5012.26,24740.35 4712.09,24659.5 "/>
    <polygon id="312" class="fil192" points="9582.96,6455.28 4772.12,24675.67 4472.86,24591.37 "/>
    <polygon id="313" class="fil191" points="9582.96,6455.28 4532.72,24608.23 4234.42,24520.48 "/>
    <polygon id="314" class="fil190" points="9582.96,6455.28 4294.08,24538.03 3996.78,24446.85 "/>
    <polygon id="315" class="fil189" points="9582.96,6455.28 4056.24,24465.09 3759.99,24370.5 "/>
    <polygon id="316" class="fil188" points="9582.96,6455.28 3819.25,24389.42 3524.09,24291.42 "/>
    <polygon id="317" class="fil187" points="9582.96,6455.28 3583.12,24311.02 3289.11,24209.63 "/>
    <polygon id="318" class="fil186" points="9582.96,6455.28 3347.91,24229.91 3055.08,24125.15 "/>
    <polygon id="319" class="fil185" points="9582.96,6455.28 3113.65,24146.1 2822.04,24037.99 "/>
    <polygon id="320" class="fil184" points="9582.96,6455.28 2880.36,24059.61 2590.03,23948.16 "/>
    <polygon id="321" class="fil183" points="9582.96,6455.28 2648.1,23970.45 2359.08,23855.67 "/>
    <polygon id="322" class="fil182" points="9582.96,6455.28 2416.88,23878.63 2129.22,23760.55 "/>
    <polygon id="323" class="fil181" points="9582.96,6455.28 2186.76,23784.16 1900.5,23662.79 "/>
    <polygon id="324" class="fil180" points="9582.96,6455.28 1957.76,23687.07 1672.95,23562.43 "/>
    <polygon id="325" class="fil179" points="9582.96,6455.28 1729.91,23587.36 1446.59,23459.47 "/>
    <polygon id="326" class="fil178" points="9582.96,6455.28 1503.26,23485.04 1221.47,23353.92 "/>
    <polygon id="327" class="fil177" points="9582.96,6455.28 1277.83,23380.15 997.62,23245.82 "/>
    <polygon id="328" class="fil176" points="9582.96,6455.28 1053.66,23272.68 775.07,23135.16 "/>
    <polygon id="329" class="fil175" points="9582.96,6455.28 830.79,23162.67 553.86,23021.97 "/>
    <polygon id="330" class="fil174" points="9582.96,6455.28 609.25,23050.11 334.02,22906.27 "/>
    <polygon id="331" class="fil173" points="9582.96,6455.28 389.06,22935.04 115.58,22788.07 "/>
    <polygon id="332" class="fil172" points="9582.96,6455.28 170.28,22817.47 -101.42,22667.39 "/>
    <polygon id="333" class="fil171" points="9582.96,6455.28 -47.08,22697.41 -316.95,22544.25 "/>
    <polygon id="334" class="fil170" points="9582.96,6455.28 -262.98,22574.89 -530.98,22418.67 "/>
    <polygon id="335" class="fil169" points="9582.96,6455.28 -477.38,22449.92 -743.48,22290.67 "/>
    <polygon id="336" class="fil168" points="9582.96,6455.28 -690.25,22322.52 -954.4,22160.26 "/>
    <polygon id="337" class="fil167" points="9582.96,6455.28 -901.57,22192.72 -1163.73,22027.47 "/>
    <polygon id="338" class="fil166" points="9582.96,6455.28 -1111.29,22060.52 -1371.42,21892.32 "/>
    <polygon id="339" class="fil165" points="9582.96,6455.28 -1319.39,21925.96 -1577.46,21754.82 "/>
    <polygon id="340" class="fil164" points="9582.96,6455.28 -1525.84,21789.05 -1781.79,21615 "/>
    <polygon id="341" class="fil163" points="9582.96,6455.28 -1730.6,21649.81 -1984.41,21472.88 "/>
    <polygon id="342" class="fil162" points="9582.96,6455.28 -1933.64,21508.27 -2185.27,21328.48 "/>
    <polygon id="343" class="fil161" points="9582.96,6455.28 -2134.94,21364.44 -2384.34,21181.82 "/>
    <polygon id="344" class="fil160" points="9582.96,6455.28 -2334.46,21218.35 -2581.59,21032.93 "/>
    <polygon id="345" class="fil159" points="9582.96,6455.28 -2532.16,21070.02 -2777,20881.83 "/>
    <polygon id="346" class="fil158" points="9582.96,6455.28 -2728.03,20919.46 -2970.54,20728.53 "/>
    <polygon id="347" class="fil157" points="9582.96,6455.28 -2922.03,20766.72 -3162.16,20573.07 "/>
    <polygon id="348" class="fil156" points="9582.96,6455.28 -3114.14,20611.8 -3351.86,20415.47 "/>
    <polygon id="349" class="fil155" points="9582.96,6455.28 -3304.31,20454.73 -3539.59,20255.74 "/>
    <polygon id="350" class="fil154" points="9582.96,6455.28 -3492.53,20295.54 -3725.33,20093.93 "/>
    <polygon id="351" class="fil153" points="9582.96,6455.28 -3678.76,20134.25 -3909.04,19930.04 "/>
    <polygon id="352" class="fil152" points="9582.96,6455.28 -3862.99,19970.88 -4090.71,19764.11 "/>
    <polygon id="353" class="fil151" points="9582.96,6455.28 -4045.17,19805.46 -4270.31,19596.15 "/>
    <polygon id="354" class="fil150" points="9582.96,6455.28 -4225.28,19638.02 -4447.8,19426.21 "/>
    <polygon id="355" class="fil149" points="9582.96,6455.28 -4403.3,19468.57 -4623.17,19254.29 "/>
    <polygon id="356" class="fil148" points="9582.96,6455.28 -4579.19,19297.15 -4796.37,19080.43 "/>
    <polygon id="357" class="fil147" points="9582.96,6455.28 -4752.93,19123.78 -4967.4,18904.66 "/>
    <polygon id="358" class="fil146" points="9582.96,6455.28 -4924.5,18948.48 -5136.21,18726.99 "/>
    <polygon id="359" class="fil145" points="9582.96,6455.28 -5093.87,18771.29 -5302.79,18547.46 "/>
    <polygon id="360" class="fil144" points="9582.96,6455.28 -5261.01,18592.23 -5467.12,18366.1 "/>
    <polygon id="361" class="fil143" points="9582.96,6455.28 -5425.89,18411.33 -5629.15,18182.93 "/>
    <polygon id="362" class="fil142" points="9582.96,6455.28 -5588.5,18228.61 -5788.88,17997.98 "/>
    <polygon id="363" class="fil141" points="9582.96,6455.28 -5748.81,18044.11 -5946.28,17811.28 "/>
    <polygon id="364" class="fil140" points="9582.96,6455.28 -5906.78,17857.85 -6101.32,17622.85 "/>
    <polygon id="365" class="fil139" points="9582.96,6455.28 -6062.41,17669.85 -6253.98,17432.73 "/>
    <polygon id="366" class="fil138" points="9582.96,6455.28 -6215.66,17480.16 -6404.23,17240.95 "/>
    <polygon id="367" class="fil137" points="9582.96,6455.28 -6366.52,17288.79 -6552.06,17047.52 "/>
    <polygon id="368" class="fil136" points="9582.96,6455.28 -6514.95,17095.78 -6697.44,16852.49 "/>
    <polygon id="369" class="fil135" points="9582.96,6455.28 -6660.94,16901.15 -6840.35,16655.88 "/>
    <polygon id="370" class="fil134" points="9582.96,6455.28 -6804.47,16704.94 -6980.76,16457.72 "/>
    <polygon id="371" class="fil133" points="9582.96,6455.28 -6945.5,16507.17 -7118.67,16258.05 "/>
    <polygon id="372" class="fil132" points="9582.96,6455.28 -7084.03,16307.87 -7254.03,16056.88 "/>
    <polygon id="373" class="fil131" points="9582.96,6455.28 -7220.03,16107.08 -7386.84,15854.26 "/>
    <polygon id="374" class="fil130" points="9582.96,6455.28 -7353.48,15904.83 -7517.08,15650.21 "/>
    <polygon id="375" class="fil129" points="9582.96,6455.28 -7484.36,15701.14 -7644.72,15444.77 "/>
    <polygon id="376" class="fil128" points="9582.96,6455.28 -7612.64,15496.05 -7769.74,15237.96 "/>
    <polygon id="377" class="fil127" points="9582.96,6455.28 -7738.32,15289.58 -7892.13,15029.82 "/>
    <polygon id="378" class="fil126" points="9582.96,6455.28 -7861.37,15081.78 -8011.87,14820.38 "/>
    <polygon id="379" class="fil125" points="9582.96,6455.28 -7981.77,14872.66 -8128.94,14609.67 "/>
    <polygon id="380" class="fil124" points="9582.96,6455.28 -8099.51,14662.27 -8243.32,14397.72 "/>
    <polygon id="381" class="fil123" points="9582.96,6455.28 -8214.56,14450.63 -8355,14184.56 "/>
    <polygon id="382" class="fil122" points="9582.96,6455.28 -8326.91,14237.78 -8463.95,13970.23 "/>
    <polygon id="383" class="fil121" points="9582.96,6455.28 -8436.54,14023.75 -8570.16,13754.77 "/>
    <polygon id="384" class="fil120" points="9582.96,6455.28 -8543.44,13808.56 -8673.62,13538.19 "/>
    <polygon id="385" class="fil119" points="9582.96,6455.28 -8647.58,13592.27 -8774.31,13320.54 "/>
    <polygon id="386" class="fil118" points="9582.96,6455.28 -8748.96,13374.88 -8872.21,13101.84 "/>
    <polygon id="387" class="fil118" points="9582.96,6455.28 -8847.56,13156.45 -8967.3,12882.14 "/>
    <polygon id="388" class="fil117" points="9582.96,6455.28 -8943.35,12937 -9059.59,12661.46 "/>
    <polygon id="389" class="fil116" points="9582.96,6455.28 -9036.34,12716.57 -9149.04,12439.84 "/>
    <polygon id="390" class="fil115" points="9582.96,6455.28 -9126.5,12495.19 -9235.65,12217.31 "/>
    <polygon id="391" class="fil114" points="9582.96,6455.28 -9213.82,12272.89 -9319.41,11993.91 "/>
    <polygon id="392" class="fil113" points="9582.96,6455.28 -9298.29,12049.71 -9400.29,11769.67 "/>
    <polygon id="393" class="fil112" points="9582.96,6455.28 -9379.89,11825.68 -9478.3,11544.62 "/>
    <polygon id="394" class="fil111" points="9582.96,6455.28 -9458.61,11600.83 -9553.41,11318.79 "/>
    <polygon id="395" class="fil110" points="9582.96,6455.28 -9534.45,11375.2 -9625.61,11092.23 "/>
    <polygon id="396" class="fil109" points="9582.96,6455.28 -9607.38,11148.83 -9694.91,10864.97 "/>
    <polygon id="397" class="fil108" points="9582.96,6455.28 -9677.4,10921.74 -9761.27,10637.03 "/>
    <polygon id="398" class="fil107" points="9582.96,6455.28 -9744.5,10693.98 -9824.7,10408.46 "/>
    <polygon id="399" class="fil106" points="9582.96,6455.28 -9808.66,10465.57 -9885.18,10179.3 "/>
    <polygon id="400" class="fil105" points="9582.96,6455.28 -9869.88,10236.55 -9942.71,9949.56 "/>
    <polygon id="401" class="fil104" points="9582.96,6455.28 -9928.14,10006.96 -9997.28,9719.3 "/>
    <polygon id="402" class="fil103" points="9582.96,6455.28 -9983.45,9776.83 -10048.87,9488.54 "/>
    <polygon id="403" class="fil102" points="9582.96,6455.28 -10035.79,9546.2 -10097.48,9257.32 "/>
    <polygon id="404" class="fil101" points="9582.96,6455.28 -10085.14,9315.1 -10143.11,9025.67 "/>
    <polygon id="405" class="fil100" points="9582.96,6455.28 -10131.52,9083.56 -10185.74,8793.64 "/>
    <polygon id="406" class="fil99" points="9582.96,6455.28 -10174.9,8851.62 -10225.37,8561.25 "/>
    <polygon id="407" class="fil98" points="9582.96,6455.28 -10215.28,8619.32 -10262,8328.54 "/>
    <polygon id="408" class="fil97" points="9582.96,6455.28 -10252.65,8386.7 -10295.61,8095.54 "/>
    <polygon id="409" class="fil96" points="9582.96,6455.28 -10287.02,8153.77 -10326.21,7862.3 "/>
    <polygon id="410" class="fil95" points="9582.96,6455.28 -10318.37,7920.59 -10353.78,7628.84 "/>
    <polygon id="411" class="fil94" points="9582.96,6455.28 -10346.7,7687.19 -10378.33,7395.21 "/>
    <polygon id="412" class="fil93" points="9582.96,6455.28 -10372,7453.61 -10399.85,7161.43 "/>
    <polygon id="413" class="fil92" points="9582.96,6455.28 -10394.28,7219.87 -10418.33,6927.54 "/>
    <polygon id="414" class="fil91" points="9582.96,6455.28 -10413.52,6986.01 -10433.78,6693.59 "/>
    <polygon id="415" class="fil90" points="9582.96,6455.28 -10429.73,6752.07 -10446.2,6459.59 "/>
    <polygon id="416" class="fil89" points="9582.96,6455.28 -10442.9,6518.09 -10455.57,6225.6 "/>
    <polygon id="417" class="fil88" points="9582.96,6455.28 -10453.03,6284.1 -10461.9,5991.64 "/>
    <polygon id="418" class="fil87" points="9582.96,6455.28 -10460.12,6050.14 -10465.18,5757.75 "/>
    <polygon id="419" class="fil86" points="9582.96,6455.28 -10464.17,5816.23 -10465.43,5523.97 "/>
    <polygon id="420" class="fil85" points="9582.96,6455.28 -10465.18,5582.42 -10462.63,5290.33 "/>
    <polygon id="421" class="fil84" points="9582.96,6455.28 -10463.14,5348.75 -10456.79,5056.87 "/>
    <polygon id="422" class="fil83" points="9582.96,6455.28 -10458.06,5115.24 -10447.91,4823.61 "/>
    <polygon id="423" class="fil82" points="9582.96,6455.28 -10449.94,4881.94 -10435.99,4590.61 "/>
    <polygon id="424" class="fil81" points="9582.96,6455.28 -10438.78,4648.88 -10421.02,4357.89 "/>
    <polygon id="425" class="fil80" points="9582.96,6455.28 -10424.57,4416.09 -10403.03,4125.48 "/>
    <polygon id="426" class="fil79" points="9582.96,6455.28 -10407.34,4183.61 -10382,3893.44 "/>
    <polygon id="427" class="fil78" points="9582.96,6455.28 -10387.06,3951.47 -10357.94,3661.77 "/>
    <polygon id="428" class="fil77" points="9582.96,6455.28 -10363.76,3719.72 -10330.85,3430.54 "/>
    <polygon id="429" class="fil76" points="9582.96,6455.28 -10337.43,3488.38 -10300.74,3199.76 "/>
    <polygon id="430" class="fil75" points="9582.96,6455.28 -10308.08,3257.49 -10267.61,2969.48 "/>
    <polygon id="431" class="fil74" points="9582.96,6455.28 -10275.7,3027.08 -10231.47,2739.72 "/>
    <polygon id="432" class="fil73" points="9582.96,6455.28 -10240.32,2797.2 -10192.32,2510.53 "/>
    <polygon id="433" class="fil72" points="9582.96,6455.28 -10201.92,2567.87 -10150.17,2281.94 "/>
    <polygon id="434" class="fil71" points="9582.96,6455.28 -10160.52,2339.13 -10105.03,2053.98 "/>
    <polygon id="435" class="fil70" points="9582.96,6455.28 -10116.12,2111.02 -10056.89,1826.69 "/>
    <polygon id="436" class="fil69" points="9582.96,6455.28 -10068.74,1883.56 -10005.78,1600.11 "/>
    <polygon id="437" class="fil68" points="9582.96,6455.28 -10018.37,1656.8 -9951.69,1374.26 "/>
    <polygon id="438" class="fil67" points="9582.96,6455.28 -9965.03,1430.77 -9894.64,1149.18 "/>
    <polygon id="439" class="fil66" points="9582.96,6455.28 -9908.72,1205.5 -9834.63,924.9 "/>
    <polygon id="440" class="fil65" points="9582.96,6455.28 -9849.45,981.02 -9771.67,701.47 "/>
    <polygon id="441" class="fil64" points="9582.96,6455.28 -9787.23,757.38 -9705.78,478.91 "/>
    <polygon id="442" class="fil63" points="9582.96,6455.28 -9722.07,534.6 -9636.96,257.25 "/>
    <polygon id="443" class="fil62" points="9582.96,6455.28 -9653.98,312.72 -9565.22,36.54 "/>
    <polygon id="444" class="fil61" points="9582.96,6455.28 -9582.97,91.78 -9490.58,-183.2 "/>
    <polygon id="445" class="fil60" points="9582.96,6455.28 -9509.06,-128.2 -9413.04,-401.93 "/>
    <polygon id="446" class="fil60" points="9582.96,6455.28 -9432.24,-347.18 -9332.61,-619.62 "/>
    <polygon id="447" class="fil59" points="9582.96,6455.28 -9352.54,-565.13 -9249.32,-836.24 "/>
    <polygon id="448" class="fil58" points="9582.96,6455.28 -9269.97,-782.02 -9163.17,-1051.75 "/>
    <polygon id="449" class="fil58" points="9582.96,6455.28 -9184.53,-997.8 -9074.17,-1266.12 "/>
    <polygon id="450" class="fil57" points="9582.96,6455.28 -9096.24,-1212.46 -8982.34,-1479.32 "/>
    <polygon id="451" class="fil56" points="9582.96,6455.28 -9005.12,-1425.95 -8887.7,-1691.32 "/>
    <polygon id="452" class="fil55" points="9582.96,6455.28 -8911.18,-1638.24 -8790.24,-1902.07 "/>
    <polygon id="453" class="fil55" points="9582.96,6455.28 -8814.43,-1849.3 -8690.01,-2111.56 "/>
    <polygon id="454" class="fil54" points="9582.96,6455.28 -8714.89,-2059.11 -8586.99,-2319.75 "/>
    <polygon id="455" class="fil53" points="9582.96,6455.28 -8612.57,-2267.62 -8481.22,-2526.61 "/>
    <polygon id="456" class="fil52" points="9582.96,6455.28 -8507.49,-2474.81 -8372.71,-2732.1 "/>
    <polygon id="457" class="fil51" points="9582.96,6455.28 -8399.67,-2680.64 -8261.47,-2936.2 "/>
    <polygon id="458" class="fil50" points="9582.96,6455.28 -8289.11,-2885.09 -8147.53,-3138.88 "/>
    <polygon id="459" class="fil49" points="9582.96,6455.28 -8175.84,-3088.12 -8030.89,-3340.1 "/>
    <polygon id="460" class="fil48" points="9582.96,6455.28 -8059.88,-3289.7 -7911.58,-3539.83 "/>
    <polygon id="461" class="fil47" points="9582.96,6455.28 -7941.24,-3489.8 -7789.61,-3738.04 "/>
    <polygon id="462" class="fil46" points="9582.96,6455.28 -7819.94,-3688.39 -7665.01,-3934.71 "/>
    <polygon id="463" class="fil45" points="9582.96,6455.28 -7696,-3885.44 -7537.79,-4129.8 "/>
    <polygon id="464" class="fil44" points="9582.96,6455.28 -7569.43,-4080.93 -7407.97,-4323.28 "/>
    <polygon id="465" class="fil43" points="9582.96,6455.28 -7440.26,-4274.81 -7275.57,-4515.13 "/>
    <polygon id="466" class="fil42" points="9582.96,6455.28 -7308.51,-4467.07 -7140.62,-4705.31 "/>
    <polygon id="467" class="fil41" points="9582.96,6455.28 -7174.2,-4657.66 -7003.12,-4893.8 "/>
    <polygon id="468" class="fil40" points="9582.96,6455.28 -7037.34,-4846.57 -6863.11,-5080.57 "/>
    <polygon id="469" class="fil39" points="9582.96,6455.28 -6897.96,-5033.77 -6720.6,-5265.58 "/>
    <polygon id="470" class="fil38" points="9582.96,6455.28 -6756.07,-5219.22 -6575.62,-5448.82 "/>
    <polygon id="471" class="fil37" points="9582.96,6455.28 -6611.71,-5402.9 -6428.18,-5630.25 "/>
    <polygon id="472" class="fil36" points="9582.96,6455.28 -6464.89,-5584.78 -6278.31,-5809.85 "/>
    <polygon id="473" class="fil35" points="9582.96,6455.28 -6315.63,-5764.83 -6126.04,-5987.58 "/>
    <polygon id="474" class="fil34" points="9582.96,6455.28 -6163.96,-5943.03 -5971.38,-6163.42 "/>
    <polygon id="475" class="fil33" points="9582.96,6455.28 -6009.9,-6119.34 -5814.37,-6337.35 "/>
    <polygon id="476" class="fil32" points="9582.96,6455.28 -5853.47,-6293.75 -5655.01,-6509.34 "/>
    <polygon id="477" class="fil31" points="9582.96,6455.28 -5694.7,-6466.22 -5493.34,-6679.36 "/>
    <polygon id="478" class="fil30" points="9582.96,6455.28 -5533.62,-6636.73 -5329.38,-6847.39 "/>
    <polygon id="479" class="fil29" points="9582.96,6455.28 -5370.23,-6805.26 -5163.16,-7013.4 "/>
    <polygon id="480" class="fil28" points="9582.96,6455.28 -5204.58,-6971.77 -4994.71,-7177.36 "/>
    <polygon id="481" class="fil27" points="9582.96,6455.28 -5036.68,-7136.24 -4824.04,-7339.25 "/>
    <polygon id="482" class="fil26" points="9582.96,6455.28 -4866.57,-7298.65 -4651.18,-7499.05 "/>
    <polygon id="483" class="fil25" points="9582.96,6455.28 -4694.26,-7458.97 -4476.16,-7656.74 "/>
    <polygon id="484" class="fil24" points="9582.96,6455.28 -4519.78,-7617.18 -4299.01,-7812.28 "/>
    <polygon id="485" class="fil23" points="9582.96,6455.28 -4343.17,-7773.26 -4119.75,-7965.65 "/>
    <polygon id="486" class="fil22" points="9582.96,6455.28 -4164.43,-7927.17 -3938.41,-8116.84 "/>
    <polygon id="487" class="fil21" points="9582.96,6455.28 -3983.62,-8078.9 -3755.02,-8265.81 "/>
    <polygon id="488" class="fil20" points="9582.96,6455.28 -3800.74,-8228.43 -3569.61,-8412.55 "/>
    <polygon id="489" class="fil19" points="9582.96,6455.28 -3615.83,-8375.73 -3382.19,-8557.03 "/>
    <polygon id="490" class="fil18" points="9582.96,6455.28 -3428.92,-8520.77 -3192.81,-8699.24 "/>
    <polygon id="491" class="fil17" points="9582.96,6455.28 -3240.04,-8663.54 -3001.5,-8839.14 "/>
    <polygon id="492" class="fil16" points="9582.96,6455.28 -3049.21,-8804.02 -2808.27,-8976.73 "/>
    <polygon id="493" class="fil15" points="9582.96,6455.28 -2856.46,-8942.19 -2613.16,-9111.97 "/>
    <polygon id="494" class="fil14" points="9582.96,6455.28 -2661.82,-9078.01 -2416.2,-9244.85 "/>
    <polygon id="495" class="fil13" points="9582.96,6455.28 -2465.32,-9211.48 -2217.42,-9375.34 "/>
    <polygon id="496" class="fil12" points="9582.96,6455.28 -2267,-9342.57 -2016.84,-9503.43 "/>
    <polygon id="497" class="fil11" points="9582.96,6455.28 -2066.88,-9471.26 -1814.51,-9629.11 "/>
    <polygon id="498" class="fil10" points="9582.96,6455.28 -1864.98,-9597.53 -1610.45,-9752.33 "/>
    <polygon id="499" class="fil9" points="9582.96,6455.28 -1661.36,-9721.37 -1404.68,-9873.1 "/>
    <polygon id="500" class="fil8" points="9582.96,6455.28 -1456.02,-9842.76 -1197.25,-9991.39 "/>
    <polygon id="501" class="fil7" points="9582.96,6455.28 -1249.01,-9961.67 -988.19,-10107.19 "/>
    <polygon id="502" class="fil6" points="9582.96,6455.28 -1040.35,-10078.08 -777.52,-10220.47 "/>
    <polygon id="503" class="fil5" points="9582.96,6455.28 -830.09,-10191.99 -565.27,-10331.22 "/>
    <polygon id="504" class="fil4" points="9582.96,6455.28 -618.24,-10303.37 -351.49,-10439.42 "/>
    <polygon id="505" class="fil3" points="9582.96,6455.28 -404.84,-10412.21 -136.2,-10545.06 "/>
    <polygon id="506" class="fil2" points="9582.96,6455.28 -189.93,-10518.49 80.57,-10648.11 "/>
    <polygon id="507" class="fil1" points="9582.96,6455.28 26.47,-10622.19 298.78,-10748.58 "/>
    <polygon id="508" class="fil0" points="9582.96,6455.28 244.31,-10723.3 518.39,-10846.43 "/>
    <polygon id="509" class="fil251" points="9582.96,6455.28 463.57,-10821.8 684.22,-10917.68 "/>
   </g>
   <path id="510" class="fil252 str0" d="M9111.99 -5554.16c6502.58,0 11773.96,5271.38 11773.96,11773.96 0,6502.59 -5271.38,11773.97 -11773.96,11773.97 -6502.59,0 -11773.97,-5271.38 -11773.97,-11773.97 0,-6502.58 5271.38,-11773.96 11773.97,-11773.96z"/>
  </g>
 </g>
</svg>
